<svg width="516.614" height="516.614" xmlns="http://www.w3.org/2000/svg">
  <defs>
    <linearGradient id="redyel" gradientUnits="objectBoundingBox" x1="0" y1="0" x2="1" y2="1">
        <stop offset="0%" stop-color="#FF0000"/>
        <stop offset="100%" stop-color="#FFFF00"/>
    </linearGradient>
    <linearGradient id="yelgre" gradientUnits="objectBoundingBox" x1="0" y1="0" x2="0" y2="1">
        <stop offset="0%" stop-color="#FFFF00"/>
        <stop offset="100%" stop-color="#00FF00"/>
    </linearGradient>
    <linearGradient id="grecya" gradientUnits="objectBoundingBox" x1="1" y1="0" x2="0" y2="1">
        <stop offset="0%" stop-color="#00FF00"/>
        <stop offset="100%" stop-color="#00FFFF"/>
    </linearGradient>
    <linearGradient id="cyablu" gradientUnits="objectBoundingBox" x1="1" y1="1" x2="0" y2="0">
        <stop offset="0%" stop-color="#00FFFF"/>
        <stop offset="100%" stop-color="#0000FF"/>
    </linearGradient>
    <linearGradient id="blumag" gradientUnits="objectBoundingBox" x1="0" y1="1" x2="0" y2="0">
        <stop offset="0%" stop-color="#0000FF"/>
        <stop offset="100%" stop-color="#FF00FF"/>
    </linearGradient>
    <linearGradient id="magred" gradientUnits="objectBoundingBox" x1="0" y1="1" x2="1" y2="0">
        <stop offset="0%" stop-color="#FF00FF"/>
        <stop offset="100%" stop-color="#FF0000"/>
    </linearGradient>
  </defs>
  <g>
    <g>
    <ellipse ry="187.2038" rx="187.2038" cy="256.15061" cx="261.38756" stroke-opacity="null" stroke-width="null" stroke="null" fill="#547475"/>
      <path fill="#B4CCCB" d="m226.151,234.25999c7.31,-11.851 20.187,-18.297 33.276,-17.92c6.142,-7.14201 11.39301,-15.06401 15.629,-23.58099c-1.79999,-37.27701 -21.868,-72.89701 -56.51601,-93.02501c-35.15099,9.492 -65.54199,30.688 -86.70999,59.14099c15.006,1.726 29.918,6.466 43.834,14.5c24.53799,14.16702 41.8,36.09102 50.487,60.88501z"/>
      <path fill="#8AACAD" d="m147.061,285.31699c24.539,-14.168 52.155,-18.155 77.97,-13.28101c-6.608,-12.25699 -5.75099,-26.631 1.12001,-37.77899c-3.11601,-8.88899 -7.35001,-17.399 -12.61,-25.325c-32.66701,-16.815 -72.79601,-17.48199 -107.19401,1.52899c-3.946,13.882 -6.058,28.52701 -6.058,43.65599c0,21.88 4.422,42.74402 12.412,61.755c8.98099,-12.06699 20.50298,-22.55197 34.35999,-30.55499z"/>
      <path fill="#B4CCCB" d="m257.189,291.896c-13.918,-0.40601 -25.93799,-8.33398 -32.158,-19.85901c-9.255,-1.74799 -18.744,-2.336 -28.23801,-1.74399c-31.02899,19.97 -51.71599,54.60001 -52.282,94.10901c24.68901,25.884 57.95201,43.51999 95.18201,48.30399c-6.407,-14.237 -9.989,-30.01999 -9.989,-46.647c0,-28.332 10.35501,-54.24399 27.485,-74.16299z"/>
      <path fill="#8AACAD" d="m340.95001,334.86099c-24.539,-14.16602 -41.79999,-36.09 -50.48599,-60.88501c-7.31,11.85101 -20.18701,18.297 -33.276,17.92001c-6.14201,7.142 -11.395,15.064 -15.62901,23.58099c1.804,37.37299 21.968,73.086 56.78099,93.18399c0.30502,0.177 0.612,0.345 0.91901,0.51602c13.862,-3.49503 27.00601,-8.80502 39.173,-15.66c18.591,-10.89401 35.17801,-25.65302 48.40601,-43.931c-15.69901,-1.51599 -31.336,-6.323 -45.888,-14.72501z"/>
      <path fill="#B4CCCB" d="m414.004,295.62701c8.80099,-34.13498 6.42599,-71.17 -8.75198,-105.08499c-9.16302,12.83899 -21.14502,23.97699 -35.69803,32.379c-24.53699,14.166 -52.15298,18.15401 -77.97,13.27901c6.61002,12.25699 5.75299,26.631 -1.11798,37.77901c3.11398,8.88898 7.34998,17.39899 12.60699,25.32498c33.26999,17.12399 74.27802,17.517 109.091,-2.582c0.61899,-0.35901 1.229,-0.72702 1.84,-1.095z"/>
      <path fill="#8AACAD" d="m319.82199,237.94299c31.46399,-20.24901 52.30801,-55.56801 52.30801,-95.76601c0,-0.716 -0.013,-1.427 -0.02701,-2.14c-25.16202,-24.68899 -58.423,-41.14999 -95.383,-44.965c6.53598,14.356 10.19098,30.301 10.19098,47.105c0,28.33301 -10.35498,54.244 -27.48599,74.16402c13.918,0.40599 25.93799,8.33398 32.15799,19.85899c9.25803,1.74701 18.74603,2.334 28.23901,1.743z"/>
    </g>
    <g stroke-width="20" fill="none" transform="translate(261.38756, 254.65061) scale(1.745, 1.745) rotate(45)">
      <path d="M 0,-100 A 100,100 0 0,1 86.6,-50" stroke="url(#redyel)" transform="matrix(1.0008, 0, 0, 1.0008, -0.035, 0.061)"/>
      <path d="M 86.6,-50 A 100,100 0 0,1 86.6,50" stroke="url(#yelgre)" transform="matrix(1.0008, 0, 0, 1.0008, -0.061, 0)"/>
      <path d="M 86.6,50 A 100,100 0 0,1 0,100" stroke="url(#grecya)" transform="matrix(1.0008, 0, 0, 1.0008, -0.035, -0.061)"/>
      <path d="M 0,100 A 100,100 0 0,1 -86.6,50" stroke="url(#cyablu)" transform="matrix(1.0008, 0, 0, 1.0008, 0.035, -0.061)"/>
      <path d="M -86.6,50 A 100,100 0 0,1 -86.6,-50" stroke="url(#blumag)" transform="matrix(1.0008, 0, 0, 1.0008, 0.35, 0)"/>
      <path d="M -86.6,-50 A 100,100 0 0,1 0,-100" stroke="url(#magred)" transform="matrix(1.0008, 0, 0, 1.0008, 0.061, 0.035)"/>
    </g>
    <g>
     <path fill="#231F20" d="m260.99228,454.61395c110.293,0 200.022,-89.729 200.022,-200.021c0,-31.908 -7.32599,-62.427 -21.77499,-90.70599c-2.017,-3.948 -6.85101,-5.51001 -10.797,-3.496c-3.94601,2.01599 -5.51102,6.84999 -3.496,10.797c13.28299,25.998 20.017,54.05901 20.017,83.405c0,101.44202 -82.53,183.97098 -183.97302,183.97098s-183.97099,-82.53 -183.97099,-183.972s82.53001,-183.971 183.97401,-183.971c61.12302,0 118.138,30.353 152.51498,81.19401c2.48102,3.67099 7.46902,4.634 11.14301,2.153c3.672,-2.48201 4.63501,-7.47101 2.15302,-11.14301c-37.366,-55.26201 -99.35101,-88.25399 -165.811,-88.25399c-110.293,0 -200.02201,89.729 -200.02201,200.02099s89.72802,200.02202 200.02101,200.02202z"/>
     <path fill="#231F20" transform="translate(-0.5,-1.5)" d="m379.05023,136.25673c-0.017,-0.017 -0.03201,-0.036 -0.04901,-0.05301c-0.108,-0.10599 -0.21899,-0.209 -0.327,-0.31499c-0.71701,-0.70001 -1.43799,-1.395 -2.168,-2.08301c-0.086,-0.08 -0.172,-0.159 -0.258,-0.24001c-23.57501,-22.112 -53.51199,-37.509 -86.73502,-43.12c-0.17297,-0.03 -0.34698,-0.058 -0.521,-0.087c-0.974,-0.162 -1.948,-0.318 -2.927,-0.462c-0.38599,-0.058 -0.77298,-0.108 -1.15997,-0.163c-0.83603,-0.118 -1.67102,-0.236 -2.51001,-0.341c-0.80899,-0.102 -1.61902,-0.189 -2.42999,-0.278c-6.07602,-0.669 -12.24701,-1.02399 -18.49902,-1.02399c-48.80399,0 -92.80399,20.933 -123.51399,54.284c-0.01399,0.015 -0.028,0.02901 -0.04199,0.04401c-0.657,0.715 -1.306,1.43599 -1.951,2.162c-0.218,0.245 -0.437,0.48999 -0.65401,0.73599c-0.53799,0.61301 -1.07199,1.23 -1.603,1.85201c-0.317,0.371 -0.63199,0.745 -0.94699,1.11899c-0.46201,0.55101 -0.92201,1.10301 -1.377,1.66101c-0.373,0.457 -0.742,0.918 -1.11101,1.37799c-0.40601,0.507 -0.812,1.013 -1.211,1.526c-0.41101,0.526 -0.81403,1.058 -1.22002,1.589c-0.36,0.472 -0.722,0.94099 -1.076,1.416c-0.03,0.041 -0.062,0.08 -0.092,0.121c-0.011,0.01399 -0.018,0.03 -0.028,0.04399c-12.985,17.46301 -22.657,37.524 -28.091,59.248c-0.093,0.37401 -0.18401,0.74901 -0.275,1.123c-0.36,1.481 -0.701,2.96901 -1.021,4.46501c-0.055,0.255 -0.113,0.507 -0.166,0.76201c-0.366,1.748 -0.70399,3.506 -1.014,5.27399c-0.043,0.24501 -0.08,0.49101 -0.122,0.73601c-0.258,1.507 -0.493,3.021 -0.71,4.53999c-0.057,0.399 -0.113,0.79901 -0.168,1.19901c-0.226,1.67 -0.433,3.347 -0.61,5.032c-0.007,0.07401 -0.018,0.147 -0.026,0.22c-0.182,1.761 -0.33199,3.53101 -0.458,5.30701c-0.03,0.42599 -0.05399,0.853 -0.08099,1.27899c-0.08701,1.35901 -0.15701,2.72101 -0.21101,4.088c-0.019,0.48601 -0.041,0.97 -0.056,1.45601c-0.055,1.74699 -0.09,3.49899 -0.09,5.258c0,1.431 0.019,2.858 0.055,4.28302c0.006,0.27701 0.022,0.55099 0.031,0.828c0.034,1.15799 0.074,2.314 0.133,3.46799c0.00999,0.19901 0.026,0.39801 0.036,0.59702c0.066,1.23398 0.14201,2.465 0.234,3.694c0.007,0.09698 0.018,0.19498 0.026,0.29199c0.103,1.32901 0.22,2.655 0.354,3.978c0.001,0.01102 0.002,0.01999 0.003,0.03101c0.709,6.97299 1.853,13.86697 3.42699,20.66299c0.02,0.08701 0.042,0.17099 0.062,0.258c0.289,1.24002 0.591,2.47702 0.907,3.711c0.061,0.23901 0.128,0.474 0.19,0.71201c0.28,1.07101 0.567,2.14001 0.87,3.20599c0.12199,0.42902 0.253,0.85501 0.378,1.284c0.253,0.86301 0.504,1.72702 0.771,2.58701c0.204,0.65802 0.42001,1.311 0.631,1.966c0.202,0.62302 0.39899,1.24802 0.60799,1.86899c0.304,0.90402 0.623,1.80103 0.942,2.69702c0.133,0.371 0.258,0.745 0.394,1.11499c0.408,1.11899 0.82899,2.23102 1.259,3.33899c0.061,0.15701 0.119,0.31601 0.18,0.47202c0.493,1.26001 1.00301,2.51199 1.525,3.758c0.007,0.01801 0.015,0.03702 0.022,0.056c0,0.00101 0.001,0.00101 0.001,0.00201c7.979,18.979 19.34299,36.19598 33.34002,50.88699c0.021,0.022 0.04001,0.047 0.061,0.07001c0.91699,0.961 1.847,1.90799 2.785,2.84598c0.034,0.034 0.06799,0.06702 0.103,0.10202c0.85899,0.858 1.728,1.70599 2.604,2.543c0.271,0.259 0.54599,0.513 0.81699,0.76999c0.62901,0.59399 1.261,1.186 1.899,1.76901c0.41901,0.384 0.843,0.763 1.26601,1.142c0.479,0.42899 0.95999,0.858 1.444,1.28198c0.55,0.483 1.104,0.961 1.662,1.436c0.332,0.284 0.664,0.565 0.99899,0.845c0.69701,0.58499 1.396,1.16602 2.10201,1.73999c0.13699,0.11102 0.274,0.22 0.411,0.33102c19.97,16.14398 43.69901,27.80698 69.651,33.45398c0.08501,0.01801 0.168,0.03601 0.25301,0.056c1.011,0.21799 2.02699,0.42899 3.04399,0.629c0.311,0.061 0.623,0.12 0.93401,0.17999c0.873,0.16702 1.748,0.33099 2.627,0.48401c0.492,0.086 0.987,0.16501 1.48,0.246c0.74501,0.12299 1.48801,0.24899 2.237,0.362c0.987,0.14999 1.976,0.285 2.96701,0.41599c7.265,0.96402 14.674,1.46902 22.198,1.46902c17.987,0 35.31799,-2.85501 51.57599,-8.11401c0.086,-0.02798 0.172,-0.056 0.258,-0.08301c5.23203,-1.702 10.35101,-3.65399 15.34601,-5.84198c0.05099,-0.022 0.103,-0.04501 0.15399,-0.06702c5.043,-2.216 9.95602,-4.673 14.72702,-7.35599c0.04199,-0.02402 0.08298,-0.04501 0.125,-0.06702c0.03998,-0.022 0.07898,-0.04498 0.11798,-0.06699c0.00302,-0.00201 0.00601,-0.004 0.01001,-0.00601c51.05801,-28.83701 85.60999,-83.61398 85.60999,-146.31699c0.00101,-46.85001 -19.28998,-89.27 -50.33798,-119.75902zm6.737,206.88902c-13.95901,-1.76001 -27.24899,-6.23901 -39.54599,-13.33801c-5.38702,-3.10999 -10.45401,-6.677 -15.16202,-10.63199c8.401,1.80099 16.98901,2.72699 25.58099,2.728l0.00601,0c15.61899,0 31.10999,-3.06198 45.57599,-8.923c-4.35199,10.715 -9.88998,20.82501 -16.45499,30.16501zm-66.67599,53.366c-1.41101,0.582 -2.832,1.142 -4.26099,1.67999c-0.01102,0.004 -0.02002,0.00702 -0.03,0.01202c-4.25601,1.603 -8.58401,3.01099 -12.96701,4.22198c-0.05099,0.01401 -0.10199,0.02802 -0.15302,0.04199c-29.57797,-17.90799 -48.37599,-48.79898 -50.72398,-83.36298c0.054,-0.10202 0.10199,-0.20602 0.155,-0.30801c0.69099,-1.314 1.41,-2.612 2.153,-3.89401c0.077,-0.134 0.14799,-0.26999 0.22499,-0.40298c0.86101,-1.46899 1.757,-2.91699 2.68599,-4.341c0.078,-0.11899 0.16302,-0.23401 0.241,-0.353c0.82602,-1.255 1.67703,-2.49402 2.55402,-3.71201c0.306,-0.42401 0.629,-0.83701 0.94202,-1.25699c0.668,-0.89801 1.34097,-1.79202 2.03598,-2.668c0.11002,-0.13901 0.22702,-0.27301 0.33801,-0.41202c1.19501,-0.07098 2.37799,-0.19199 3.547,-0.35199c0.078,-0.01102 0.15701,-0.01901 0.23499,-0.03c0.44,-0.06302 0.87601,-0.13602 1.31201,-0.211c0.293,-0.05002 0.58499,-0.10202 0.87701,-0.15701c0.32397,-0.06198 0.64697,-0.12698 0.96899,-0.19598c0.48999,-0.104 0.97598,-0.21802 1.461,-0.33801c0.14301,-0.03601 0.28799,-0.06799 0.431,-0.10599c6.71899,-1.73001 12.918,-4.95102 18.164,-9.435c0.129,0.26999 0.271,0.53098 0.40198,0.79898c0.33801,0.69 0.686,1.37601 1.03702,2.061c0.29498,0.57599 0.58701,1.15201 0.89099,1.72299c0.40302,0.75803 0.82401,1.50803 1.24402,2.25702c0.302,0.53799 0.59799,1.07898 0.90698,1.61099c0.63699,1.09702 1.29001,2.18399 1.961,3.26099c0.24701,0.39603 0.504,0.785 0.755,1.17801c0.38602,0.60501 0.76501,1.21301 1.16199,1.81302c0.048,0.073 0.108,0.13699 0.15802,0.20898c10.30899,15.43701 24.08499,28.44699 40.39398,37.86301c11.05002,6.38 22.80002,10.92398 35.07202,13.577c-10.715,12.35001 -23.30701,22.80301 -37.573,31.172c-5.37302,3.02499 -10.91501,5.71301 -16.59302,8.05301c-0.00101,0 -0.004,0.00101 -0.008,0.00299zm-76.66701,-94.62201c-0.343,0.53201 -0.689,1.06 -1.02299,1.59799c-0.46901,0.75 -0.92101,1.51102 -1.373,2.272c-0.261,0.44 -0.532,0.87302 -0.78601,1.31601c-0.67799,1.17599 -1.33499,2.36499 -1.97499,3.56299c-0.21001,0.39301 -0.408,0.79102 -0.612,1.186c-0.34201,0.65799 -0.69101,1.31302 -1.022,1.978c-0.039,0.077 -0.063,0.15802 -0.10001,0.23599c-8.21399,16.64801 -12.595,35.08301 -12.595,53.91803c0,12.45099 1.85001,24.61298 5.51201,36.31c-0.007,-0.00201 -0.015,-0.00302 -0.022,-0.005c-26.20399,-5.86099 -50.61,-18.72202 -70.411,-37.146c-0.133,-0.12302 -0.265,-0.246 -0.39801,-0.37003c-1.26199,-1.18198 -2.50699,-2.38397 -3.72899,-3.60999c1.51399,-33.547 18.782,-64.263 46.75299,-83.04501c1.927,-0.082 3.851,-0.10699 5.77101,-0.08499c0.86099,0.01102 1.72299,0.02899 2.584,0.061c0.59399,0.021 1.18799,0.04501 1.78099,0.07599c1.18201,0.06403 2.364,0.147 3.545,0.24902c0.41,0.03497 0.819,0.073 1.22701,0.112c1.32201,0.13098 2.644,0.284 3.96001,0.46399c0.27199,0.03699 0.545,0.07599 0.81599,0.116c0.334,0.048 0.66299,0.112 0.996,0.164c0.03,0.04501 0.062,0.08801 0.092,0.133c0.179,0.267 0.36301,0.52899 0.547,0.79199c0.211,0.30301 0.42401,0.60303 0.64101,0.901c0.189,0.25803 0.383,0.51401 0.578,0.767c0.22,0.28702 0.44299,0.57001 0.66899,0.85101c0.209,0.259 0.41701,0.517 0.63101,0.771c0.211,0.25 0.42699,0.496 0.64299,0.74301c0.242,0.27499 0.481,0.55099 0.73,0.82098c0.13901,0.151 0.28201,0.29501 0.42401,0.444c4.922,5.20502 11.041,9.26199 17.92,11.71701c-0.166,0.24301 -0.32001,0.49301 -0.485,0.737c-0.436,0.64999 -0.864,1.306 -1.289,1.965zm-125.84103,-0.23999c-0.488,-1.54199 -0.948,-3.091 -1.38499,-4.646c-0.14301,-0.509 -0.278,-1.022 -0.416,-1.53299c-0.318,-1.17801 -0.62,-2.36002 -0.908,-3.54501c-0.126,-0.51801 -0.259,-1.03101 -0.379,-1.55099c-0.341,-1.46701 -0.654,-2.939 -0.95,-4.41602c-0.131,-0.64798 -0.25301,-1.29999 -0.376,-1.952c-0.21301,-1.13699 -0.412,-2.27798 -0.598,-3.422c-0.10101,-0.61499 -0.204,-1.228 -0.297,-1.84601c-0.214,-1.422 -0.404,-2.849 -0.578,-4.28c-0.07301,-0.59698 -0.14001,-1.19598 -0.207,-1.797c-0.154,-1.41599 -0.293,-2.83398 -0.409,-4.25699c-0.026,-0.311 -0.055,-0.621 -0.078,-0.93201c-0.121,-1.617 -0.21001,-3.23898 -0.278,-4.86398c-0.02,-0.46402 -0.037,-0.92902 -0.054,-1.39401c-0.05801,-1.73001 -0.098,-3.46402 -0.098,-5.202c0,-1.48701 0.027,-2.97302 0.071,-4.45602c0.013,-0.44499 0.034,-0.88899 0.05,-1.33299c0.04,-1.05901 0.089,-2.117 0.151,-3.175c0.029,-0.48801 0.06001,-0.97501 0.093,-1.461c0.074,-1.076 0.159,-2.151 0.256,-3.224c0.036,-0.41 0.07,-0.821 0.11,-1.229c0.289,-2.95799 0.664,-5.90399 1.126,-8.834c0.061,-0.38499 0.12801,-0.769 0.192,-1.153c0.18,-1.086 0.37,-2.17 0.574,-3.25099c0.083,-0.44601 0.16901,-0.89101 0.257,-1.33501c0.217,-1.101 0.448,-2.2 0.69,-3.29601c0.078,-0.35199 0.151,-0.705 0.231,-1.056c0.328,-1.439 0.675,-2.87399 1.04501,-4.302c0.009,-0.03299 0.018,-0.06499 0.02699,-0.097c14.87803,-7.61699 31.42503,-11.62799 48.07403,-11.62799c16.121,0 32.22701,3.741 46.71899,10.832c0.058,0.092 0.121,0.17999 0.179,0.272c0.843,1.33499 1.66,2.687 2.442,4.05499c0.028,0.049 0.05901,0.09601 0.08701,0.146c0.851,1.49501 1.66499,3.009 2.44099,4.54001c0.02701,0.052 0.05,0.10699 0.077,0.159c0.714,1.412 1.39201,2.842 2.039,4.283c0.21001,0.465 0.40001,0.94099 0.60201,1.409c0.446,1.034 0.88699,2.06799 1.3,3.11501c0.067,0.17 0.127,0.34299 0.194,0.515c-3.103,6.17499 -4.862,13.13699 -4.862,20.506c0,2.82602 0.271,5.58701 0.763,8.27402c-0.43401,-0.03302 -0.87001,-0.047 -1.304,-0.07602c-0.37801,-0.02499 -0.754,-0.04498 -1.132,-0.06598c-1.033,-0.05902 -2.065,-0.11099 -3.09801,-0.14301c-0.00699,0 -0.015,0 -0.02199,0c-3.45201,-0.10699 -6.90001,-0.05899 -10.338,0.129c-0.34901,0.01901 -0.69901,0.02701 -1.048,0.04901c-0.043,0.00299 -0.086,0.013 -0.12801,0.01599c-18.61499,1.19901 -36.84,6.66901 -53.119,16.06699c-10.30499,5.95001 -19.54501,13.242 -27.60001,21.76901c-0.04501,-0.129 -0.08801,-0.255 -0.12801,-0.384zm20.19503,-132.26901c12.731,2.03 24.86499,6.334 36.131,12.84c5.388,3.11101 10.45601,6.67801 15.16499,10.636c-8.39499,-1.799 -16.97499,-2.724 -25.55998,-2.724c-14.017,0 -27.96802,2.467 -41.15003,7.217c4.161,-9.899 9.34602,-19.263 15.41402,-27.96899zm139.90599,40.795c0.354,-0.549 0.71201,-1.09599 1.05701,-1.64999c0.44699,-0.718 0.879,-1.444 1.31299,-2.17201c0.28,-0.47099 0.57001,-0.937 0.84399,-1.41199c0.67599,-1.17201 1.33002,-2.356 1.96899,-3.55101c0.20502,-0.38499 0.39902,-0.77499 0.60001,-1.162c0.34702,-0.66699 0.70001,-1.32899 1.035,-2.00299c0.04001,-0.07899 0.06601,-0.164 0.103,-0.245c8.21201,-16.64601 12.591,-35.07901 12.591,-53.91101c0,-12.754 -1.93799,-25.19601 -5.772,-37.144c27.89902,5.453 54.02899,18.81 74.93201,38.44201c-0.422,34.94501 -17.83401,67.07899 -46.867,86.569c-1.52301,0.064 -3.08899,0.07899 -4.56299,0.097c-1.198,0 -2.397,-0.028 -3.595,-0.06799c-0.16901,-0.00601 -0.33801,-0.005 -0.508,-0.01201c-0.89102,-0.034 -1.78,-0.09599 -2.67001,-0.153c-0.66299,-0.043 -1.32599,-0.08499 -1.98801,-0.14c-0.741,-0.061 -1.48099,-0.13499 -2.22,-0.21201c-0.853,-0.09 -1.70599,-0.189 -2.55499,-0.29999c-0.60999,-0.078 -1.21899,-0.15601 -1.82599,-0.24501c-0.25302,-0.037 -0.50302,-0.086 -0.755,-0.12399c-0.039,-0.05901 -0.08099,-0.116 -0.121,-0.174c-0.14902,-0.22101 -0.30301,-0.44 -0.45502,-0.658c-0.24298,-0.351 -0.48898,-0.69901 -0.741,-1.04201c-0.164,-0.22099 -0.32999,-0.44099 -0.496,-0.65999c-0.25,-0.32701 -0.50497,-0.65201 -0.76398,-0.972c-0.181,-0.224 -0.362,-0.44701 -0.54602,-0.66701c-0.24899,-0.29601 -0.504,-0.58701 -0.76099,-0.877c-0.20502,-0.233 -0.409,-0.468 -0.61801,-0.69701c-0.21201,-0.22899 -0.42899,-0.452 -0.64499,-0.67599c-1.07901,-1.127 -2.21201,-2.19901 -3.39899,-3.21201c-0.02103,-0.01799 -0.04202,-0.036 -0.06302,-0.05499c-4.17999,-3.55299 -9.00101,-6.37199 -14.267,-8.252c0.17001,-0.248 0.327,-0.505 0.495,-0.755c0.42603,-0.62799 0.84201,-1.26599 1.25601,-1.907zm131.59601,82.13402c-15.79901,8.866 -33.621,13.54401 -51.634,13.54401l-0.005,0c-16.12997,-0.00101 -32.245,-3.74402 -46.745,-10.84c-0.05798,-0.09 -0.11899,-0.17801 -0.177,-0.26901c-0.84998,-1.345 -1.672,-2.70599 -2.45898,-4.08499c-0.022,-0.04102 -0.048,-0.07901 -0.07199,-0.12c-0.85101,-1.49503 -1.664,-3.009 -2.44101,-4.54001c-0.03299,-0.065 -0.06302,-0.134 -0.09601,-0.19901c-0.70599,-1.401 -1.379,-2.81601 -2.021,-4.245c-0.20898,-0.46399 -0.39899,-0.93802 -0.60101,-1.40601c-0.44699,-1.03601 -0.88998,-2.07501 -1.30298,-3.12299c-0.06601,-0.168 -0.125,-0.33902 -0.19,-0.50702c0.009,-0.017 0.01599,-0.034 0.02499,-0.05099c3.08701,-6.16199 4.83499,-13.10599 4.83499,-20.45502c0,-2.82599 -0.271,-5.588 -0.763,-8.274c0.215,0.017 0.43002,0.022 0.64502,0.037c1.03299,0.073 2.06598,0.134 3.09998,0.181c0.69803,0.032 1.39502,0.054 2.09402,0.073c0.56299,0.01601 1.12598,0.026 1.69,0.03401c2.76898,0.041 5.534,-0.01601 8.293,-0.166c0.375,-0.02 0.75098,-0.02901 1.12299,-0.052c0.04599,-0.00301 0.091,-0.01401 0.13699,-0.017c18.612,-1.20201 36.83499,-6.66901 53.10699,-16.065c11.04401,-6.377 20.85199,-14.276 29.28201,-23.57001c9.22998,26.886 10.72598,56.19601 4.17599,84.11502zm-135.892,-9.42001c-0.30899,0.14801 -0.62302,0.28699 -0.93701,0.42499c-0.25,0.10901 -0.50198,0.21402 -0.755,0.31601c-0.23898,0.09601 -0.47699,0.194 -0.71899,0.284c-1.11398,0.41299 -2.25198,0.76501 -3.41599,1.04401c-0.04599,0.01102 -0.09299,0.021 -0.13901,0.03201c-2.49399,0.58499 -5.09,0.85599 -7.73502,0.78098c-0.00098,0 -0.00299,0 -0.004,0c-9.25798,-0.26999 -17.84599,-4.89398 -23.22697,-12.30499l0,0c-0.384,-0.52899 -0.75101,-1.07199 -1.10201,-1.629c-0.00099,-0.00101 -0.00099,-0.00198 -0.002,-0.00299c-0.343,-0.54602 -0.67,-1.10501 -0.979,-1.67801c-0.08299,-0.155 -0.15599,-0.31799 -0.248,-0.466c-4.78099,-9.23499 -4.36699,-20.423 1.11601,-29.32101l0,0c0.30299,-0.491 0.62399,-0.96599 0.95099,-1.435c0.104,-0.14799 0.20601,-0.29399 0.31201,-0.44c0.21899,-0.30299 0.448,-0.597 0.67799,-0.88899c0.72501,-0.91901 1.49699,-1.80099 2.32401,-2.62801c0.006,-0.006 0.013,-0.013 0.01999,-0.01999c2.65601,-2.65401 5.811,-4.806 9.308,-6.31201c0.12401,-0.054 0.24901,-0.105 0.37401,-0.15599c0.34599,-0.14301 0.69299,-0.282 1.04601,-0.41301c0.33899,-0.12399 0.683,-0.241 1.02699,-0.353c0.25999,-0.086 0.522,-0.16899 0.785,-0.24699c0.46199,-0.13701 0.927,-0.265 1.396,-0.38c0.129,-0.032 0.261,-0.06 0.392,-0.091c0.522,-0.12 1.048,-0.228 1.577,-0.31999c0.054,-0.01001 0.106,-0.019 0.15901,-0.02901c1.90898,-0.319 3.868,-0.457 5.856,-0.399c0.00098,0 0.00299,0 0.005,0c7.93298,0.231 15.37097,3.658 20.724,9.29601c0.00497,0.005 0.00998,0.011 0.01498,0.01601c0.88101,0.929 1.703,1.91699 2.46301,2.961c0.022,0.03099 0.04498,0.06299 0.06699,0.095c0.354,0.48999 0.69299,0.99199 1.01901,1.50499c0.021,0.033 0.04401,0.06601 0.064,0.101c0.33899,0.54001 0.66199,1.09401 0.96799,1.658c0.00201,0.004 0.004,0.00999 0.00601,0.01401c5.01901,9.30699 4.685,20.69402 -0.86899,29.72902c-0.022,0.03699 -0.04703,0.073 -0.07101,0.10999c-0.27899,0.44901 -0.57401,0.88602 -0.87299,1.31702c-0.11902,0.16898 -0.23801,0.33798 -0.35901,0.50497c-0.20001,0.27502 -0.409,0.54202 -0.617,0.80902c-0.73001,0.92999 -1.509,1.819 -2.34201,2.65601c-0.01999,0.01999 -0.03998,0.04099 -0.06,0.06c-2.29599,2.29099 -4.966,4.20599 -7.905,5.65399c-0.09702,0.047 -0.19501,0.09802 -0.293,0.146zm-4.36401,-89.662c-0.72501,1.38 -1.479,2.746 -2.263,4.091c-0.03699,0.064 -0.07101,0.129 -0.108,0.194c-0.86899,1.48399 -1.772,2.94499 -2.70999,4.38199c-0.02902,0.04501 -0.061,0.08801 -0.09,0.13301c-0.871,1.33 -1.77301,2.63699 -2.70102,3.925c-0.29099,0.403 -0.599,0.79599 -0.897,1.196c-0.67899,0.914 -1.36298,1.823 -2.07001,2.715c-0.10999,0.138 -0.22598,0.27299 -0.33698,0.411c-1.19501,0.071 -2.37601,0.19 -3.54501,0.351c-0.07899,0.011 -0.159,0.019 -0.239,0.03c-0.43999,0.063 -0.87599,0.136 -1.312,0.211c-0.293,0.05 -0.58499,0.10201 -0.877,0.15701c-0.32401,0.06299 -0.64799,0.127 -0.97,0.19699c-0.489,0.104 -0.974,0.21701 -1.457,0.33701c-0.144,0.036 -0.291,0.06799 -0.43399,0.10699c-6.71901,1.73 -12.916,4.951 -18.16301,9.435c-0.132,-0.274 -0.276,-0.541 -0.41,-0.81499c-0.332,-0.677 -0.67299,-1.34901 -1.01599,-2.02c-0.302,-0.59 -0.601,-1.181 -0.914,-1.765c-0.382,-0.71701 -0.78,-1.425 -1.177,-2.13501c-0.36501,-0.653 -0.729,-1.30499 -1.105,-1.95099c-0.589,-1.009 -1.18901,-2.01201 -1.806,-3.004c-0.27301,-0.43901 -0.55701,-0.869 -0.836,-1.30301c-0.366,-0.571 -0.72301,-1.146 -1.09801,-1.71201c-0.045,-0.06699 -0.101,-0.127 -0.147,-0.194c-10.31099,-15.44299 -24.08899,-28.45799 -40.40399,-37.877c-10.40401,-6.00699 -21.45401,-10.39099 -32.987,-13.09799c18.89999,-21.23 43.51399,-36.92301 70.68901,-44.92901c28.88899,18.00901 47.222,48.55001 49.53999,82.62901c-0.056,0.099 -0.104,0.201 -0.15601,0.302zm-115.69299,100.93602c5.364,-3.09698 10.97301,-5.694 16.746,-7.798c-15.229,16.867 -25.472,37.694 -29.463,60.228c-6.38701,-8.56799 -11.89103,-17.832 -16.37903,-27.65198c8.10602,-9.96402 17.86702,-18.29501 29.09602,-24.77802zm214.46799,-76.29802c-5.35098,3.089 -10.94598,5.683 -16.70599,7.783c16.14801,-17.86601 26.651,-40.14801 30.07901,-64.22701c7.03299,8.80901 13.11398,18.409 18.07098,28.653c-8.52899,11.293 -19.07797,20.651 -31.444,27.791zm-94.306,-113.32001c5.07501,12.559 7.65201,25.832 7.65201,39.52701c0,6.194 -0.552,12.338 -1.61499,18.367c-7.16702,-22.192 -20.56003,-41.88702 -38.78203,-56.74201c7.089,-1.019 14.33101,-1.557 21.69701,-1.557c3.71603,0.001 7.39801,0.141 11.048,0.405zm-25.98099,302.60603c-4.989,-12.46799 -7.52499,-25.63 -7.52499,-39.19601c0,-6.19098 0.55099,-12.32999 1.614,-18.358c7.235,22.41101 20.81599,42.26401 39.30901,57.16302c-6.05402,0.737 -12.21402,1.125 -18.46201,1.125c-5.04102,0.00098 -10.022,-0.25201 -14.936,-0.73401z"/>
     <path fill="#231F20" transform="translate(-0.5,-1.5)" d="m259.29099,236.33716c-11.01302,0 -19.97202,8.95999 -19.97202,19.97299s8.959,19.97299 19.97202,19.97299c11.01401,0 19.974,-8.95999 19.974,-19.97299c0.00101,-11.013 -8.95901,-19.97299 -19.974,-19.97299zm0,23.89697c-2.16199,0"/>
    </g>
    <g opacity="0.6" transform="translate(3, 0)">
     <path fill="#231F20" d="m125.534,254.118c0,-83.92 64.985,-152.94299 147.27701,-159.40099c-4.16602,-0.327 -8.375,-0.498 -12.62201,-0.498c-88.168,0 -159.898,71.73 -159.898,159.897c0,88.168 71.73,159.897 159.898,159.897c4.24799,0 8.45599,-0.17001 12.62201,-0.49799c-82.29201,-6.453 -147.27701,-75.47702 -147.27701,-159.39702z"/>
    </g>
  </g>
</svg>